<svg xmlns="http://www.w3.org/2000/svg" xmlns:svg="http://www.w3.org/2000/svg" id="svg2" width="685" height="734" version="1.1" viewBox="0 0 685 734"><metadata id="metadata33"/><title id="title4">neovim-mark@2x</title><description id="description6">Created with Sketch (http://www.bohemiancoding.com/sketch)</description><defs id="defs8"><linearGradient id="linearGradient3836"><stop style="stop-color:#1493d9;stop-opacity:0" id="stop3838" offset="0"/><stop style="stop-color:#1493d9;stop-opacity:1" id="stop3840" offset="1"/></linearGradient><linearGradient id="linearGradient3828"><stop style="stop-color:#1493d9;stop-opacity:0" id="stop3830" offset="0"/><stop style="stop-color:#1493d9;stop-opacity:1" id="stop3832" offset="1"/></linearGradient><linearGradient id="linearGradient3776"><stop style="stop-color:#82bb67;stop-opacity:1" id="stop3778" offset="0"/><stop style="stop-color:#82bb67;stop-opacity:0" id="stop3780" offset="1"/></linearGradient><linearGradient id="linearGradient-1" x1="167.958" x2="167.958" y1="-.461" y2="335.455" gradientTransform="scale(0.46142398,2.1672042)" gradientUnits="userSpaceOnUse"><stop id="stop11" offset="0%" stop-color="#16B0ED" stop-opacity=".8"/><stop id="stop13" offset="100%" stop-color="#0F59B2" stop-opacity=".837"/></linearGradient><linearGradient id="linearGradient-2" x1="1118.343" x2="1118.343" y1="-.466" y2="338.686" gradientTransform="scale(0.46586797,2.1465309)" gradientUnits="userSpaceOnUse"><stop id="stop16" offset="0%" stop-color="#7DB643"/><stop id="stop18" offset="100%" stop-color="#367533"/></linearGradient><linearGradient id="linearGradient-3" x1="356.338" x2="356.338" y1="0" y2="612.901" gradientTransform="scale(0.84189739,1.1877932)" gradientUnits="userSpaceOnUse"><stop id="stop21" offset="0%" stop-color="#88C649" stop-opacity=".8"/><stop id="stop23" offset="100%" stop-color="#439240" stop-opacity=".84"/></linearGradient></defs><g id="Page-1" style="fill:none;stroke:none"><g id="mark-copy" transform="translate(44.82946,4.1767488)"><path id="Left---green" d="M 0,155.5704 155,-1 155,727 0,572.23792 0,155.5704 z" style="fill:url(#linearGradient-1)"/><path id="Right---blue" d="M 443.0604,156.9824 600,-1 596.81879,727 442,572.21994 443.0604,156.9824 z" transform="matrix(-1,0,0,1,1042,0)" style="fill:url(#linearGradient-2)"/><path id="Cross---blue" d="M 154.98629,0 558,615.1897 445.2246,728 42,114.17202 154.98629,0 z" style="fill:url(#linearGradient-3)"/><path id="Shadow" d="M 155,283.83232 154.78675,308 31,124.71061 42.461949,113 155,283.83232 z" style="fill:#000;fill-opacity:.12999998"/></g><path style="fill:#71ab40;fill-opacity:1;stroke:none" id="path3010" d="M 298.57628,93.305094 440.45385,-156.55713 585.90209,91.24356 z" transform="matrix(1.0865963,0,0,0.6390214,7.1788409,103.28161)"/><path style="opacity:.8;fill:#1491d9;fill-opacity:.81176471;stroke:none" id="path3857" d="m 239.48305,463.41526 c -38.7862,1.29287 -103.74327,-103.02788 -85.46983,-137.26415 18.27343,-34.23627 141.09639,-38.33037 161.60915,-5.38697 20.51276,32.94339 -37.35312,141.35824 -76.13932,142.65112 z" transform="matrix(0.27317423,0,0,0.1696114,271.16005,423.76729)"/><path style="opacity:.6;fill:#000;fill-opacity:0;stroke:#1493d9;stroke-width:20.4969635;stroke-linecap:butt;stroke-linejoin:miter;stroke-miterlimit:4;stroke-opacity:1;stroke-dasharray:none" id="path3035-0" d="m 492.49229,503.12815 c 130.02859,43.33858 184.51305,1.00787 184.51305,1.00787 l 3.76494,-2.01575 0,0"/><path style="opacity:.6;fill:#000;fill-opacity:0;stroke:#1493d9;stroke-width:19.81956863;stroke-linecap:butt;stroke-linejoin:miter;stroke-miterlimit:4;stroke-opacity:1;stroke-dasharray:none" id="path3035-0-1" d="m 496.75011,548.43097 c 97.1339,74.95263 154.60595,56.74099 154.60595,56.74099 l 3.71929,-0.51253 0,0"/><path style="opacity:.6;fill:#000;fill-opacity:0;stroke:#1493d9;stroke-width:20.73791122;stroke-linecap:butt;stroke-linejoin:miter;stroke-miterlimit:4;stroke-opacity:1;stroke-dasharray:none" id="path3035-0-1-7" d="m 663.48305,395.16067 c -101.18777,81.77992 -165.17007,67.7431 -165.17007,67.7431 l -4.09681,-0.2438 0,0"/><path style="opacity:.6;fill:#000;fill-opacity:0;stroke:#82bb67;stroke-width:20.69506073;stroke-linecap:butt;stroke-linejoin:miter;stroke-miterlimit:4;stroke-opacity:1;stroke-dasharray:none" id="path3035-0-1-9" d="M 189.11169,545.97905 C 83.206824,620.93168 20.545189,602.72004 20.545189,602.72004 l -4.055126,-0.51253 0,0"/><path style="opacity:.6;fill:#000;fill-opacity:0;stroke:#82bb67;stroke-width:19.86843299999999957;stroke-linecap:butt;stroke-linejoin:miter;stroke-miterlimit:4;stroke-opacity:1;stroke-dasharray:none" id="path3035-0-9" d="M 180.82681,504.48817 C 58.650504,547.82675 7.4563115,505.49604 7.4563115,505.49604 l -3.5375833,-2.01575 0,0"/><path style="opacity:.6;fill:#000;fill-opacity:0;stroke:#82bb67;stroke-width:20.03423309;stroke-linecap:butt;stroke-linejoin:miter;stroke-miterlimit:4;stroke-opacity:1;stroke-dasharray:none" id="path3035-0-1-7-9" d="m 21.520149,392.83525 c 94.240711,81.16053 154.011071,66.75063 154.011071,66.75063 l 3.82532,-0.26787 0,0"/><path style="opacity:.9;fill:#000;fill-opacity:0;stroke:#1493d9;stroke-width:25.8422699;stroke-linecap:butt;stroke-linejoin:miter;stroke-miterlimit:4;stroke-opacity:.81176471;stroke-dasharray:none" id="path3035-7" d="m 339.08975,512.00204 c 36.17449,160.55912 130.23107,33.72124 130.23107,33.72124 l 5.31334,-5.8465 0,0"/><path style="opacity:.9;fill:#000;fill-opacity:0;stroke:#1493d9;stroke-width:25.8422699;stroke-linecap:butt;stroke-linejoin:miter;stroke-miterlimit:4;stroke-opacity:.81176471;stroke-dasharray:none" id="path3035-7-9" d="m 338.73521,510.58323 c -36.17449,160.55912 -130.23106,33.72124 -130.23106,33.72124 l -5.31334,-5.8465 0,0"/></g></svg>